<svg width="24" height="24" viewBox="0 0 24 24" fill="none" xmlns="http://www.w3.org/2000/svg">
<g id="fountain-pen 1" clip-path="url(#clip0_567_125)">
<g id="g519">
<g id="g521">
<g id="Clip path group">
<mask id="mask0_567_125" style="mask-type:luminance" maskUnits="userSpaceOnUse" x="0" y="0" width="24" height="24">
<g id="clipPath527">
<path id="path525" d="M0 1.90735e-06H24V24H0V1.90735e-06Z" fill="white"/>
</g>
</mask>
<g mask="url(#mask0_567_125)">
<g id="g523">
<g id="g529">
<path id="path531" d="M17.5608 3.37516C13.7642 6.32613 10.3318 9.72335 7.33923 13.496L5.51514 15.7955" stroke="#717171" stroke-width="0.5" stroke-miterlimit="10" stroke-linecap="round" stroke-linejoin="round"/>
</g>
<g id="g533">
<path id="path535" d="M8.20288 18.4814L10.5039 16.6585C15.1011 13.0166 19.1412 8.72295 22.4961 3.91371L23.0023 3.18823L20.8184 1.00573L20.0924 1.51156C19.7567 1.74542 19.4235 1.98265 19.0929 2.22317" stroke="#717171" stroke-width="0.5" stroke-miterlimit="10" stroke-linecap="round" stroke-linejoin="round"/>
</g>
<g id="g537">
<path id="path539" d="M7.05383 19.6277C6.32989 18.9042 5.09141 17.6665 4.36705 16.9426C4.04994 16.6257 4.05027 16.1121 4.36747 15.7954C4.68454 15.4787 5.19838 15.4788 5.5153 15.7955L8.20166 18.4802C8.51891 18.7972 8.51863 19.3114 8.20096 19.6281C7.8838 19.9443 7.37057 19.9442 7.05383 19.6277Z" stroke="#717171" stroke-width="0.5" stroke-miterlimit="10" stroke-linecap="round" stroke-linejoin="round"/>
</g>
<g id="g541">
<path id="path543" d="M23.3276 2.863L23.0023 3.18817L20.8184 1.00567L21.1448 0.679515C21.5722 0.25239 22.2649 0.25239 22.6923 0.679515L23.3276 1.31434C23.7555 1.74189 23.7555 2.43545 23.3276 2.863Z" stroke="#717171" stroke-width="0.5" stroke-miterlimit="10" stroke-linecap="round" stroke-linejoin="round"/>
</g>
<g id="g545">
<path id="path547" d="M5.14373 22.6844L0.351562 23.6409L1.30884 18.852" stroke="#717171" stroke-width="0.5" stroke-miterlimit="10" stroke-linecap="round" stroke-linejoin="round"/>
</g>
<g id="g549">
<path id="path551" d="M5.45528 21.8887L5.1438 22.6844" stroke="#717171" stroke-width="0.5" stroke-miterlimit="10" stroke-linecap="round" stroke-linejoin="round"/>
</g>
<g id="g553">
<path id="path555" d="M1.30884 18.852L4.89684 17.476L6.53985 19.1179L6.09192 20.2621" stroke="#717171" stroke-width="0.5" stroke-miterlimit="10" stroke-linecap="round" stroke-linejoin="round"/>
</g>
<g id="g557">
<path id="path559" d="M5.70877 18.2874L3.22632 20.7682" stroke="#717171" stroke-width="0.5" stroke-miterlimit="10" stroke-linecap="round" stroke-linejoin="round"/>
</g>
<g id="g561">
<path id="path563" d="M13.499 6.8929L14.7973 8.19031" stroke="#717171" stroke-width="0.5" stroke-miterlimit="10" stroke-linecap="round" stroke-linejoin="round"/>
</g>
<g id="g565">
<path id="path567" d="M15.8674 9.25971L17.1319 10.5233" stroke="#717171" stroke-width="0.5" stroke-miterlimit="10" stroke-linecap="round" stroke-linejoin="round"/>
</g>
<g id="g569">
<path id="path571" d="M12.5786 7.81279L13.8762 9.1095" stroke="#717171" stroke-width="0.5" stroke-miterlimit="10" stroke-linecap="round" stroke-linejoin="round"/>
</g>
<g id="g573">
<path id="path575" d="M14.947 10.1796L16.2446 11.4763" stroke="#717171" stroke-width="0.5" stroke-miterlimit="10" stroke-linecap="round" stroke-linejoin="round"/>
</g>
<g id="g577">
<path id="path579" d="M11.061 12.9393C10.7801 12.6586 10.7801 12.2035 11.061 11.9228L18.702 4.28675C18.9825 4.00639 19.4372 4.00639 19.7178 4.28675C19.9986 4.56735 19.9986 5.02255 19.7178 5.30319L12.0768 12.9393C11.7962 13.2196 11.3415 13.2196 11.061 12.9393Z" stroke="#717171" stroke-width="0.5" stroke-miterlimit="10" stroke-linecap="round" stroke-linejoin="round"/>
</g>
</g>
</g>
</g>
</g>
</g>
</g>
<defs>
<clipPath id="clip0_567_125">
<rect width="24" height="24" fill="white"/>
</clipPath>
</defs>
</svg>
